<svg xmlns="http://www.w3.org/2000/svg" width="50" height="50" viewBox="0 0 50 50">
  <metadata><?xpacket begin="﻿" id="W5M0MpCehiHzreSzNTczkc9d"?>
<x:xmpmeta xmlns:x="adobe:ns:meta/" x:xmptk="Adobe XMP Core 5.6-c138 79.159824, 2016/09/14-01:09:01        ">
   <rdf:RDF xmlns:rdf="http://www.w3.org/1999/02/22-rdf-syntax-ns#">
      <rdf:Description rdf:about=""/>
   </rdf:RDF>
</x:xmpmeta>
                                                                                                    
                                                                                                    
                                                                                                    
                                                                                                    
                                                                                                    
                                                                                                    
                                                                                                    
                                                                                                    
                                                                                                    
                                                                                                    
                                                                                                    
                                                                                                    
                                                                                                    
                                                                                                    
                                                                                                    
                                                                                                    
                                                                                                    
                                                                                                    
                                                                                                    
                                                                                                    
                           
<?xpacket end="w"?></metadata>
<defs>
    <style>
      .cls-1 {
        fill: #8dd921;
      }

      .cls-2 {
        fill: #fff;
        fill-rule: evenodd;
      }
    </style>
  </defs>
  <circle id="Ellipse_6_copy" data-name="Ellipse 6 copy" class="cls-1" cx="25" cy="25" r="25"/>
  <path id="stopwatch" class="cls-2" d="M34.223,25.232a9.547,9.547,0,0,0-1.547-5.3l1.406-1.406a0.686,0.686,0,0,0,.141-0.422,0.507,0.507,0,0,0-.141-0.375L32.723,16.42a0.446,0.446,0,0,0-.375-0.187,0.583,0.583,0,0,0-.422.188L30.66,17.685a9.712,9.712,0,0,0-4.687-2.109V13.982h1.313a0.56,0.56,0,0,0,.563-0.562V11.545a0.56,0.56,0,0,0-.562-0.562H21.66a0.56,0.56,0,0,0-.562.563V13.42a0.56,0.56,0,0,0,.563.563h1.313v1.641a9.388,9.388,0,0,0-4.2,1.688,9.707,9.707,0,0,0-4.055,7.922,9.469,9.469,0,0,0,1.313,4.9,9.851,9.851,0,0,0,3.539,3.539,9.8,9.8,0,0,0,9.8,0,9.851,9.851,0,0,0,3.539-3.539A9.469,9.469,0,0,0,34.223,25.232Zm-8.25,1.688a0.56,0.56,0,0,1-.562.563H23.535a0.56,0.56,0,0,1-.562-0.562V19.795a0.573,0.573,0,0,1,.164-0.375,0.51,0.51,0,0,1,.4-0.187H25.41a0.51,0.51,0,0,1,.4.188,0.573,0.573,0,0,1,.164.375V26.92Z"/>
</svg>
