<svg xmlns="http://www.w3.org/2000/svg" width="50" height="50" viewBox="0 0 50 50">
  <metadata><?xpacket begin="﻿" id="W5M0MpCehiHzreSzNTczkc9d"?>
<x:xmpmeta xmlns:x="adobe:ns:meta/" x:xmptk="Adobe XMP Core 5.6-c138 79.159824, 2016/09/14-01:09:01        ">
   <rdf:RDF xmlns:rdf="http://www.w3.org/1999/02/22-rdf-syntax-ns#">
      <rdf:Description rdf:about=""/>
   </rdf:RDF>
</x:xmpmeta>
                                                                                                    
                                                                                                    
                                                                                                    
                                                                                                    
                                                                                                    
                                                                                                    
                                                                                                    
                                                                                                    
                                                                                                    
                                                                                                    
                                                                                                    
                                                                                                    
                                                                                                    
                                                                                                    
                                                                                                    
                                                                                                    
                                                                                                    
                                                                                                    
                                                                                                    
                                                                                                    
                           
<?xpacket end="w"?></metadata>
<defs>
    <style>
      .cls-1 {
        fill: #fdc903;
      }

      .cls-2 {
        fill: #fff;
        fill-rule: evenodd;
      }
    </style>
  </defs>
  <circle id="Ellipse_6_copy" data-name="Ellipse 6 copy" class="cls-1" cx="25" cy="25" r="25"/>
  <path class="cls-2" d="M23.768,35A7.981,7.981,0,0,1,16,27.624a8.107,8.107,0,0,1,4.738-7.669c-0.983,2.1,3.013,2.464,2.793-.117-0.11-1.3-.657-1.991-0.657-3.835a7.29,7.29,0,0,1,2.738-5,4,4,0,0,0,.328,3.22C28.559,18.518,34,21.126,34,26.966A8.07,8.07,0,0,1,26.466,35c4.641-1.713,3.792-6.528,2.862-8.225-0.233,2.063-1.958,3.776-3.383,3.688,2.383-2.43,2.629-7.23-1.15-10.45C26.548,25.78,21.3,25.978,21.1,30.609,21.051,31.86,21.536,33.391,23.768,35Z"/>
</svg>
