<svg xmlns="http://www.w3.org/2000/svg" width="50" height="50" viewBox="0 0 50 50">
  <metadata><?xpacket begin="﻿" id="W5M0MpCehiHzreSzNTczkc9d"?>
<x:xmpmeta xmlns:x="adobe:ns:meta/" x:xmptk="Adobe XMP Core 5.6-c138 79.159824, 2016/09/14-01:09:01        ">
   <rdf:RDF xmlns:rdf="http://www.w3.org/1999/02/22-rdf-syntax-ns#">
      <rdf:Description rdf:about=""/>
   </rdf:RDF>
</x:xmpmeta>
                                                                                                    
                                                                                                    
                                                                                                    
                                                                                                    
                                                                                                    
                                                                                                    
                                                                                                    
                                                                                                    
                                                                                                    
                                                                                                    
                                                                                                    
                                                                                                    
                                                                                                    
                                                                                                    
                                                                                                    
                                                                                                    
                                                                                                    
                                                                                                    
                                                                                                    
                                                                                                    
                           
<?xpacket end="w"?></metadata>
<defs>
    <style>
      .cls-1 {
        fill: #c32626;
      }

      .cls-2 {
        fill: #fff;
        fill-rule: evenodd;
      }
    </style>
  </defs>
  <circle id="Ellipse_6_copy" data-name="Ellipse 6 copy" class="cls-1" cx="25" cy="25" r="25"/>
  <path id="_" data-name="" class="cls-2" d="M30.977,33.951a0.564,0.564,0,0,0,.182-0.029,0.917,0.917,0,0,0,.17-0.076,0.616,0.616,0,0,0,.205-0.264,0.647,0.647,0,0,0,.041-0.334l-1.148-6.891,4.582-4.582a0.594,0.594,0,0,0,.158-0.281,0.556,0.556,0,0,0-.018-0.328,0.526,0.526,0,0,0-.176-0.27,0.679,0.679,0,0,0-.293-0.141l-6.9-1.148-2.859-5.719a0.612,0.612,0,0,0-.223-0.252,0.613,0.613,0,0,0-.633,0,0.61,0.61,0,0,0-.223.252l-2.859,5.719-6.9,1.148a0.677,0.677,0,0,0-.293.141,0.524,0.524,0,0,0-.176.27,0.552,0.552,0,0,0-.018.328,0.592,0.592,0,0,0,.158.281l4.582,4.582-1.148,6.891a0.642,0.642,0,0,0,.041.334,0.615,0.615,0,0,0,.205.264,0.627,0.627,0,0,0,.311.105,0.582,0.582,0,0,0,.322-0.07l6.316-3.445L30.7,33.881a0.455,0.455,0,0,0,.135.053,0.635,0.635,0,0,0,.146.018h0Z"/>
</svg>
